<svg xmlns="http://www.w3.org/2000/svg" viewBox="0 0 512 512">
  <defs>
    <linearGradient id="bg" x1="0" y1="0" x2="1" y2="1">
      <stop offset="0" stop-color="#1a73e8"/>
      <stop offset="1" stop-color="#1557b0"/>
    </linearGradient>
  </defs>
  <rect width="512" height="512" rx="108" fill="url(#bg)"/>
  <circle cx="256" cy="238" r="150" fill="#fff" opacity=".12"/>
  <path d="M256 106a70 70 0 0 0-70 70v106a70 70 0 0 0 140 0V176a70 70 0 0 0-70-70Z" fill="#fff"/>
  <path d="M151 263v20c0 58 47 105 105 105s105-47 105-105v-20" fill="none" stroke="#fff" stroke-width="30" stroke-linecap="round"/>
  <path d="M256 388v58M206 446h100" fill="none" stroke="#fff" stroke-width="30" stroke-linecap="round"/>
  <path d="M205 198h102M205 248h102" fill="none" stroke="#1a73e8" stroke-width="18" stroke-linecap="round"/>
</svg>
